<svg xmlns="http://www.w3.org/2000/svg" viewBox="23.5112 23.5126 854.3943 349.4592" role="img" aria-label="Anderssons Isolering">
<title>Anderssons Isolering</title>
<path fill="currentColor" fill-rule="evenodd" d="M 98.4643 352.332 C 98.4643 355.8501 100.563 357.6401 103.4637 357.6401 C 106.3647 357.6401 108.4632 355.8501 108.4632 352.332 L 108.4632 337.7656 L 122.4122 353.4429 C 124.0172 355.233 125.9306 357.6401 128.5843 357.6401 C 131.362 357.6401 133.8307 355.9118 133.8307 352.7022 C 133.8307 350.8506 132.5962 349.5546 131.0533 347.8881 L 118.0301 333.7537 L 129.9424 321.7799 C 130.9915 320.669 131.9173 319.2494 131.9173 317.768 C 131.9173 315.1139 129.1399 312.9536 126.9179 312.9536 C 125.4368 312.9536 124.2023 313.2623 122.2271 315.4844 L 108.4632 330.4825 L 108.4632 318.2618 C 108.4632 314.7437 106.3647 312.9536 103.4637 312.9536 C 100.563 312.9536 98.4643 314.7437 98.4643 318.2618 Z Z M 778.5729 348.3819 C 777.8322 349.9248 776.9682 351.5295 776.9682 353.1345 C 776.9682 355.1094 778.758 357.6401 781.9058 357.6401 C 785.3621 357.6401 786.4115 355.3563 787.5224 352.8876 L 801.5332 322.6439 C 802.3357 320.8541 802.9528 319.5578 802.9528 318.0767 C 802.9528 315.8546 801.0394 313.3241 797.7682 313.3241 L 777.5237 313.3241 C 774.4377 313.3241 772.8945 315.6695 772.8945 317.9531 C 772.8945 320.237 774.4377 322.5824 777.5237 322.5824 L 790.8554 322.5824 Z Z M 754.6867 312.3365 C 747.0332 312.3365 740.429 316.5335 740.429 324.6809 C 740.429 329.0014 743.0213 332.2108 744.5027 333.3835 C 740.429 335.8525 738.5774 339.9259 738.5774 343.938 C 738.5774 351.9618 744.9347 358.2572 754.6867 358.2572 C 764.4387 358.2572 770.796 351.9618 770.796 343.938 C 770.796 339.9259 768.9444 335.8525 764.8707 333.3835 C 766.3521 332.2108 768.9444 329.0014 768.9444 324.6809 C 768.9444 316.5335 762.3403 312.3365 754.6867 312.3365 Z M 748.9466 342.8886 C 748.9466 339.679 751.477 337.1485 754.6867 337.1485 C 757.8961 337.1485 760.4269 339.679 760.4269 342.8886 C 760.4269 346.098 757.8961 348.6288 754.6867 348.6288 C 751.477 348.6288 748.9466 346.098 748.9466 342.8886 Z M 750.4279 325.4831 C 750.4279 323.1995 752.4031 321.2243 754.6867 321.2243 C 756.9703 321.2243 758.9455 323.1995 758.9455 325.4831 C 758.9455 327.7669 756.9703 329.7418 754.6867 329.7418 C 752.4031 329.7418 750.4279 327.7669 750.4279 325.4831 Z M 704.4454 312.3365 C 696.7919 312.3365 690.1877 316.5335 690.1877 324.6809 C 690.1877 329.0014 692.78 332.2108 694.2614 333.3835 C 690.1877 335.8525 688.3362 339.9259 688.3362 343.938 C 688.3362 351.9618 694.6934 358.2572 704.4454 358.2572 C 714.1975 358.2572 720.5547 351.9618 720.5547 343.938 C 720.5547 339.9259 718.7031 335.8525 714.6295 333.3835 C 716.1109 332.2108 718.7031 329.0014 718.7031 324.6809 C 718.7031 316.5335 712.099 312.3365 704.4454 312.3365 Z M 698.7053 342.8886 C 698.7053 339.679 701.2358 337.1485 704.4454 337.1485 C 707.6548 337.1485 710.1856 339.679 710.1856 342.8886 C 710.1856 346.098 707.6548 348.6288 704.4454 348.6288 C 701.2358 348.6288 698.7053 346.098 698.7053 342.8886 Z M 700.1867 325.4831 C 700.1867 323.1995 702.1619 321.2243 704.4454 321.2243 C 706.729 321.2243 708.7042 323.1995 708.7042 325.4831 C 708.7042 327.7669 706.729 329.7418 704.4454 329.7418 C 702.1619 329.7418 700.1867 327.7669 700.1867 325.4831 Z M 667.8034 322.5824 L 679.695 322.5824 C 682.7811 322.5824 684.3243 320.237 684.3243 317.9531 C 684.3243 315.6695 682.7811 313.3241 679.695 313.3241 L 664.6555 313.3241 C 662.053 313.3241 659.8312 313.6943 659.3374 317.4593 L 657.7943 329.4949 C 657.5474 331.6552 657.4856 332.8279 657.4856 334.1242 C 657.4856 336.4078 659.0906 337.7656 661.4974 337.7656 C 664.7791 337.7656 665.026 335.5438 669.0379 335.5438 C 672.2371 335.5438 673.9551 338.4448 673.9551 341.4073 C 673.9551 346.098 671.62 348.6288 668.1121 348.6288 C 663.6064 348.6288 661.8061 345.0489 658.3499 345.0489 C 656.0045 345.0489 654.0911 347.0856 654.0911 350.0484 C 654.0911 354.801 661.9912 358.2572 668.4208 358.2572 C 677.7201 358.2572 684.6945 351.0975 684.6945 342.0246 C 684.6945 334.1242 680.2506 327.3964 671.7433 327.3964 C 670.2619 327.3964 668.4823 327.6433 667.1245 328.0138 Z Z M 605.4443 343.2588 C 605.4443 352.1469 611.6783 358.2572 621.43 358.2572 C 630.8734 358.2572 637.416 351.5913 637.416 343.0119 C 637.416 336.0991 632.3547 329.248 625.0717 329.248 C 623.2201 329.248 622.1089 329.4334 621.1831 329.7418 L 621.0598 329.6185 C 625.5655 323.0144 630.3798 320.4221 630.3798 317.1506 C 630.3798 315.4844 628.8985 312.3365 625.5655 312.3365 C 623.1583 312.3365 621.5536 313.571 614.147 322.7675 C 609.8264 328.1371 605.4443 335.2969 605.4443 343.2588 Z M 615.8134 343.0119 C 615.8134 339.9877 618.3439 337.3954 621.43 337.3954 C 624.5161 337.3954 627.0469 339.9877 627.0469 343.0119 C 627.0469 346.0365 624.5161 348.6288 621.43 348.6288 C 618.3439 348.6288 615.8134 346.0365 615.8134 343.0119 Z M 585.57 352.2087 C 585.57 355.7267 587.4216 357.6401 590.3844 357.6401 C 593.3469 357.6401 595.1985 355.7267 595.1985 352.0851 L 595.1985 348.0114 L 597.297 348.0114 C 600.3831 348.0114 602.3582 346.6536 602.3582 343.5675 C 602.3582 340.4815 600.3831 339.1237 597.297 339.1237 L 595.1985 339.1237 L 595.1985 320.4839 C 595.1985 316.0397 592.3593 312.9536 587.7918 312.9536 C 584.6443 312.9536 582.484 313.6943 580.6939 316.4717 L 566.0042 339.1855 C 565.2635 340.2964 564.0908 342.1479 564.0908 344.0613 C 564.0908 345.7278 565.3253 348.0114 569.0903 348.0114 L 585.57 348.0114 Z Z M 585.57 339.1237 L 576.3118 339.1237 L 585.4465 323.3846 L 585.57 323.3846 Z Z M 550.3887 352.332 C 550.3887 355.8501 552.4872 357.6401 555.3882 357.6401 C 558.2891 357.6401 560.3876 355.8501 560.3876 352.332 L 560.3876 318.3236 C 560.3876 314.1881 557.6717 313.3241 555.3882 313.3241 L 547.2408 313.3241 C 544.1547 313.3241 542.6118 315.6695 542.6118 317.9531 C 542.6118 320.237 544.1547 322.5824 547.2408 322.5824 L 550.3887 322.5824 Z Z M 508.9737 335.9758 C 506.4432 335.9758 504.9 337.5805 504.9 340.0495 C 504.9 342.5181 506.4432 344.1231 508.9737 344.1231 L 523.5401 344.1231 C 526.0706 344.1231 527.6134 342.5181 527.6134 340.0495 C 527.6134 337.5805 526.0706 335.9758 523.5401 335.9758 Z Z M 453.3627 343.2588 C 453.3627 352.1469 459.5964 358.2572 469.3484 358.2572 C 478.7918 358.2572 485.3344 351.5913 485.3344 343.0119 C 485.3344 336.0991 480.2732 329.248 472.9901 329.248 C 471.1385 329.248 470.0273 329.4334 469.1015 329.7418 L 468.9782 329.6185 C 473.4839 323.0144 478.2983 320.4221 478.2983 317.1506 C 478.2983 315.4844 476.8169 312.3365 473.4839 312.3365 C 471.0767 312.3365 469.472 313.571 462.0654 322.7675 C 457.7448 328.1371 453.3627 335.2969 453.3627 343.2588 Z M 463.7319 343.0119 C 463.7319 339.9877 466.2624 337.3954 469.3484 337.3954 C 472.4345 337.3954 474.965 339.9877 474.965 343.0119 C 474.965 346.0365 472.4345 348.6288 469.3484 348.6288 C 466.2624 348.6288 463.7319 346.0365 463.7319 343.0119 Z M 428.5505 348.3819 C 427.8098 349.9248 426.9458 351.5295 426.9458 353.1345 C 426.9458 355.1094 428.7359 357.6401 431.8835 357.6401 C 435.3401 357.6401 436.3892 355.3563 437.5003 352.8876 L 451.5109 322.6439 C 452.3134 320.8541 452.9307 319.5578 452.9307 318.0767 C 452.9307 315.8546 451.0174 313.3241 447.7459 313.3241 L 427.5014 313.3241 C 424.4153 313.3241 422.8722 315.6695 422.8722 317.9531 C 422.8722 320.237 424.4153 322.5824 427.5014 322.5824 L 440.833 322.5824 Z Z M 385.2221 335.2969 C 385.2221 346.8387 390.9623 358.2572 403.6153 358.2572 C 416.268 358.2572 422.0082 346.8387 422.0082 335.2969 C 422.0082 323.7551 416.268 312.3365 403.6153 312.3365 C 390.9623 312.3365 385.2221 323.7551 385.2221 335.2969 Z M 395.5912 335.2969 C 395.5912 329.8036 397.3813 321.965 403.6153 321.965 C 409.8489 321.965 411.639 329.8036 411.639 335.2969 C 411.639 340.7901 409.8489 348.6288 403.6153 348.6288 C 397.3813 348.6288 395.5912 340.7901 395.5912 335.2969 Z M 299.8616 351.0357 C 299.8616 355.9736 308.7493 358.2572 314.6128 358.2572 C 323.9328 358.2572 331.401 353.6898 331.401 343.5675 C 331.401 335.2351 326.1549 332.4577 320.7234 330.6679 C 313.8106 328.384 311.3416 328.0753 311.3416 325.5449 C 311.3416 323.3846 313.1932 321.965 315.9091 321.965 C 320.1678 321.965 321.2169 323.6315 324.4266 323.6315 C 327.0807 323.6315 328.8705 321.6566 328.8705 318.9407 C 328.8705 315.1139 324.4266 312.3365 316.4029 312.3365 C 308.0704 312.3365 300.602 316.8422 300.602 326.4091 C 300.602 334.3711 305.9719 336.5929 311.1565 338.2594 C 316.8349 340.1113 320.6616 340.7901 320.6616 344.1231 C 320.6616 346.2834 319.242 348.2583 315.3535 348.2583 C 310.2307 348.2583 307.021 345.7278 304.5523 345.7278 C 301.5281 345.7278 299.8616 348.3201 299.8616 351.0357 Z M 281.8386 339.9259 L 273.3211 317.4593 C 272.3953 315.1757 271.5313 312.9536 267.7663 312.9536 C 264.8653 312.9536 262.8901 315.299 262.8901 317.8298 C 262.8901 318.7556 263.6308 320.7305 263.9395 321.4712 L 276.1603 352.332 C 277.1478 354.801 278.0121 357.6401 281.7153 357.6401 C 285.4185 357.6401 286.2828 354.801 287.2704 352.332 L 299.738 321.4712 C 300.0467 320.7305 300.7871 318.7556 300.7871 317.8298 C 300.7871 315.299 298.8122 312.9536 295.9112 312.9536 C 292.1462 312.9536 291.2822 315.1757 290.3562 317.4593 Z Z M 233.0172 340.1113 C 233.0172 343.0737 235.4859 345.4809 238.3869 345.4809 C 241.2879 345.4809 243.7566 343.0737 243.7566 340.1113 C 243.7566 337.2103 241.2879 334.7413 238.3869 334.7413 C 235.4859 334.7413 233.0172 337.2103 233.0172 340.1113 Z M 210.6122 329.0629 C 210.6122 326.2856 208.637 324.0635 205.7978 324.0635 C 203.4524 324.0635 201.9713 325.6684 201.2924 327.1496 C 199.1322 324.4958 196.6632 323.4464 193.0215 323.4464 C 184.6276 323.4464 178.1467 331.1614 178.1467 340.8517 C 178.1467 350.5422 184.6276 358.2572 193.0215 358.2572 C 196.6632 358.2572 199.1322 357.2078 201.2924 354.5541 C 201.9713 356.0352 203.4524 357.6401 205.7978 357.6401 C 208.637 357.6401 210.6122 355.4181 210.6122 352.6407 Z Z M 194.3796 332.7046 C 198.6384 332.7046 200.9837 336.4078 200.9837 340.8517 C 200.9837 345.2958 198.6384 348.999 194.3796 348.999 C 190.1208 348.999 187.7754 345.2958 187.7754 340.8517 C 187.7754 336.4078 190.1208 332.7046 194.3796 332.7046 Z M 165.5555 352.6407 C 165.5555 355.4181 167.5307 357.6401 170.3699 357.6401 C 173.209 357.6401 175.1842 355.4181 175.1842 352.6407 L 175.1842 314.7437 C 175.1842 311.9663 173.209 309.7443 170.3699 309.7443 C 167.5307 309.7443 165.5555 311.9663 165.5555 314.7437 Z Z M 139.6945 361.3433 C 138.5833 363.8738 138.0895 364.985 138.0895 366.6515 C 138.0895 368.2562 139.3858 370.9718 142.842 370.9718 C 146.175 370.9718 146.9775 368.9351 148.0884 366.4046 L 162.3461 333.1366 C 162.8399 332.0257 163.5188 330.3592 163.5188 328.9396 C 163.5188 325.9769 161.5436 324.0635 158.5811 324.0635 C 155.9271 324.0635 154.5693 326.3473 153.3348 329.3098 L 147.9651 342.3948 L 142.2867 327.7051 C 141.3607 325.298 139.6945 324.0635 137.3488 324.0635 C 134.9419 324.0635 132.658 325.73 132.658 328.5691 C 132.658 329.6803 133.5838 331.9639 134.695 334.5562 L 142.9038 354.1221 Z M 50.646 113.762 L 47.2323 123.8392 C 46.1334 127.1593 44.6606 129.7079 42.8132 131.4617 C 40.9662 133.2152 38.7918 134.1038 36.3368 134.1038 C 33.1802 134.1038 30.5848 133.0748 28.5508 130.994 C 26.5167 128.9131 25.5112 126.2943 25.5112 123.1379 C 25.5112 121.8754 25.6048 120.6829 25.7919 119.5839 C 25.979 118.485 26.236 117.4795 26.6102 116.5677 L 52.5634 46.1433 C 54.4339 41.0697 56.7954 37.3519 59.6011 34.9671 C 62.407 32.6056 65.8675 31.4131 69.9824 31.4131 C 73.8638 31.4131 77.2307 32.5353 80.0832 34.8033 C 82.9356 37.0712 85.1335 40.3446 86.6767 44.6237 L 111.9753 116.217 C 112.4663 117.7369 112.8404 119.093 113.0975 120.262 C 113.3547 121.4545 113.4717 122.5066 113.4717 123.4186 C 113.4717 126.5749 112.4195 129.147 110.3151 131.1343 C 108.2107 133.1216 105.5221 134.1038 102.2485 134.1038 C 99.326 134.1038 96.8942 133.1919 94.9304 131.3682 C 92.9896 129.5444 91.47 126.762 90.3242 122.9976 L 87.5186 113.762 Z Z M 726.9033 134.6648 C 719.0237 134.6648 712.477 133.0984 707.2863 129.9418 C 702.1191 126.7855 699.5238 122.8806 699.5238 118.2279 C 699.5238 115.4455 700.3421 113.1072 701.9788 111.1902 C 703.6387 109.2728 705.6264 108.3142 707.9411 108.3142 C 710.279 108.3142 713.6927 109.3896 718.2289 111.5172 C 722.7413 113.6684 726.1549 114.7439 728.4229 114.7439 C 730.2702 114.7439 731.743 114.2997 732.8888 113.4346 C 734.0345 112.5695 734.5958 111.4941 734.5958 110.2315 C 734.5958 108.0336 731.0418 105.5318 723.9338 102.7026 L 722.4842 102.1416 C 714.4175 98.7747 708.8997 95.4311 705.9302 92.1109 C 702.9607 88.7907 701.4878 84.6054 701.4878 79.5318 C 701.4878 72.7277 704.1065 67.0461 709.3439 62.5102 C 714.5578 57.9507 721.1749 55.6828 729.1712 55.6828 C 736.396 55.6828 742.5218 57.2259 747.549 60.289 C 752.5758 63.3521 755.0776 66.9525 755.0776 71.1146 C 755.0776 73.7331 754.1892 75.9311 752.4355 77.708 C 750.682 79.4851 748.5076 80.3734 745.959 80.3734 C 744.252 80.3734 741.3761 79.4851 737.3311 77.708 C 733.2862 75.9311 730.1999 75.0427 728.0958 75.0427 C 726.5991 75.0427 725.3834 75.3933 724.4715 76.0946 C 723.5596 76.8194 723.0922 77.7313 723.0922 78.877 C 723.0922 80.9347 726.0382 83.0623 731.9069 85.307 C 734.6425 86.3592 736.8169 87.2476 738.4301 87.9724 C 745.0472 90.9419 749.7466 94.075 752.5526 97.3951 C 755.3582 100.6917 756.761 104.7134 756.761 109.4132 C 756.761 116.6144 753.9318 122.6234 748.297 127.44 C 742.6621 132.2565 735.5309 134.6648 726.9033 134.6648 Z M 623.0904 117.4563 L 623.0904 72.9851 C 623.0904 67.5605 624.0023 63.5156 625.8025 60.897 C 627.6028 58.2549 630.3852 56.9453 634.1495 56.9453 C 636.3707 56.9453 638.3816 57.5301 640.1117 58.6991 C 641.842 59.8681 643.3852 61.6218 644.718 64.0065 C 647.0795 61.388 649.8152 59.4942 652.9247 58.3016 C 656.0345 57.1091 659.7988 56.5246 664.2179 56.5246 C 672.9391 56.5246 679.6029 59.0265 684.2091 64.0065 C 688.815 68.9869 691.1297 76.2349 691.1297 85.7276 L 691.1297 117.4563 C 691.1297 122.8806 690.2181 126.9255 688.3941 129.5676 C 686.5706 132.2097 683.7882 133.5425 680.0471 133.5425 C 676.306 133.5425 673.5236 132.2097 671.7001 129.5676 C 669.8763 126.9255 668.9644 122.8806 668.9644 117.4563 L 668.9644 92.4383 C 668.9644 86.2889 668.029 81.8933 666.182 79.2512 C 664.335 76.6323 661.2952 75.3231 657.0399 75.3231 C 653.0182 75.3231 650.049 76.6794 648.1317 79.3916 C 646.2144 82.1037 645.2557 86.3592 645.2557 92.1576 L 645.2557 117.4563 C 645.2557 122.8806 644.3438 126.9255 642.52 129.5676 C 640.6731 132.2097 637.8906 133.5425 634.1495 133.5425 C 630.3852 133.5425 627.6028 132.2097 625.8025 129.5676 C 624.0023 126.9255 623.0904 122.8806 623.0904 117.4563 Z M 560.2415 94.94 C 560.2415 100.5982 561.5976 105.1344 564.2864 108.5948 C 566.9753 112.0318 570.4822 113.762 574.8314 113.762 C 579.1802 113.762 582.6874 112.0318 585.3763 108.5481 C 588.0652 105.0876 589.4212 100.5514 589.4212 94.94 C 589.4212 89.4923 588.0417 85.0732 585.2828 81.6127 C 582.5238 78.1758 579.0398 76.4456 574.8314 76.4456 C 570.529 76.4456 567.0453 78.1523 564.3097 81.5892 C 561.5976 85.0029 560.2415 89.4455 560.2415 94.94 Z M 537.3746 95.1972 C 537.3746 83.6936 540.9051 74.2476 547.9428 66.8122 C 555.0041 59.4003 563.9591 55.6828 574.8314 55.6828 C 585.7505 55.6828 594.6819 59.3771 601.6732 66.7889 C 608.6641 74.1773 612.1478 83.6468 612.1478 95.1972 C 612.1478 106.7711 608.6641 116.2405 601.6732 123.6756 C 594.6819 131.0875 585.7505 134.8051 574.8314 134.8051 C 563.9591 134.8051 555.0041 131.0875 547.9428 123.6289 C 540.9051 116.1935 537.3746 106.7243 537.3746 95.1972 Z M 501.9049 134.6648 C 494.0257 134.6648 487.4789 133.0984 482.2882 129.9418 C 477.1208 126.7855 474.5254 122.8806 474.5254 118.2279 C 474.5254 115.4455 475.3438 113.1072 476.9805 111.1902 C 478.6407 109.2728 480.628 108.3142 482.9427 108.3142 C 485.281 108.3142 488.6947 109.3896 493.2306 111.5172 C 497.7432 113.6684 501.1569 114.7439 503.4249 114.7439 C 505.2719 114.7439 506.745 114.2997 507.8907 113.4346 C 509.0362 112.5695 509.5974 111.4941 509.5974 110.2315 C 509.5974 108.0336 506.0434 105.5318 498.9357 102.7026 L 497.4861 102.1416 C 489.4194 98.7747 483.9014 95.4311 480.9321 92.1109 C 477.9626 88.7907 476.4895 84.6054 476.4895 79.5318 C 476.4895 72.7277 479.1084 67.0461 484.3456 62.5102 C 489.5598 57.9507 496.1765 55.6828 504.1732 55.6828 C 511.398 55.6828 517.5238 57.2259 522.5506 60.289 C 527.5778 63.3521 530.0796 66.9525 530.0796 71.1146 C 530.0796 73.7331 529.1909 75.9311 527.4375 77.708 C 525.684 79.4851 523.5093 80.3734 520.9607 80.3734 C 519.254 80.3734 516.378 79.4851 512.3331 77.708 C 508.2881 75.9311 505.2019 75.0427 503.0974 75.0427 C 501.6011 75.0427 500.3853 75.3933 499.4735 76.0946 C 498.5615 76.8194 498.0938 77.7313 498.0938 78.877 C 498.0938 80.9347 501.0398 83.0623 506.9086 85.307 C 509.6442 86.3592 511.8186 87.2476 513.432 87.9724 C 520.0488 90.9419 524.7485 94.075 527.5543 97.3951 C 530.3602 100.6917 531.763 104.7134 531.763 109.4132 C 531.763 116.6144 528.9338 122.6234 523.2989 127.44 C 517.6641 132.2565 510.5328 134.6648 501.9049 134.6648 Z M 440.8798 134.6648 C 433.0002 134.6648 426.4535 133.0984 421.2631 129.9418 C 416.0957 126.7855 413.5003 122.8806 413.5003 118.2279 C 413.5003 115.4455 414.3186 113.1072 415.9553 111.1902 C 417.6155 109.2728 419.6028 108.3142 421.9176 108.3142 C 424.2558 108.3142 427.6695 109.3896 432.2054 111.5172 C 436.7181 113.6684 440.1318 114.7439 442.3997 114.7439 C 444.2467 114.7439 445.7199 114.2997 446.8656 113.4346 C 448.0111 112.5695 448.5723 111.4941 448.5723 110.2315 C 448.5723 108.0336 445.0183 105.5318 437.9106 102.7026 L 436.4607 102.1416 C 428.3943 98.7747 422.8762 95.4311 419.9067 92.1109 C 416.9375 88.7907 415.4644 84.6054 415.4644 79.5318 C 415.4644 72.7277 418.083 67.0461 423.3204 62.5102 C 428.5346 57.9507 435.1514 55.6828 443.1477 55.6828 C 450.3728 55.6828 456.4986 57.2259 461.5255 60.289 C 466.5526 63.3521 469.0544 66.9525 469.0544 71.1146 C 469.0544 73.7331 468.1657 75.9311 466.4123 77.708 C 464.6586 79.4851 462.4841 80.3734 459.9356 80.3734 C 458.2289 80.3734 455.3529 79.4851 451.3079 77.708 C 447.263 75.9311 444.1767 75.0427 442.0723 75.0427 C 440.576 75.0427 439.3602 75.3933 438.4483 76.0946 C 437.5364 76.8194 437.0687 77.7313 437.0687 78.877 C 437.0687 80.9347 440.0147 83.0623 445.8834 85.307 C 448.6191 86.3592 450.7935 87.2476 452.4069 87.9724 C 459.0236 90.9419 463.7234 94.075 466.5291 97.3951 C 469.3351 100.6917 470.7379 104.7134 470.7379 109.4132 C 470.7379 116.6144 467.9087 122.6234 462.2738 127.44 C 456.639 132.2565 449.5074 134.6648 440.8798 134.6648 Z M 366.387 117.4328 L 366.387 72.9616 C 366.387 67.5373 367.2989 63.5156 369.0994 60.8735 C 370.8997 58.2549 373.6821 56.9453 377.4464 56.9453 C 379.6676 56.9453 381.6784 57.5301 383.4087 58.6991 C 385.1389 59.8681 386.682 61.6218 388.0149 64.0065 C 390.2828 61.5283 392.7143 59.6577 395.2629 58.4184 C 397.8115 57.1559 400.4068 56.5246 403.0022 56.5246 C 406.0652 56.5246 408.6838 57.6001 410.905 59.7745 C 413.1264 61.9489 414.2251 64.521 414.2251 67.4905 C 414.2251 71.9329 410.1569 75.6272 402.0435 78.5964 C 399.1207 79.6486 396.9231 80.5138 395.4735 81.1918 C 392.6911 82.5246 390.8441 83.9974 389.9321 85.6109 C 389.0203 87.2243 388.5526 90.1703 388.5526 94.4023 L 388.5526 117.4328 C 388.5526 122.8806 387.6407 126.9255 385.8169 129.5676 C 383.9699 132.2097 381.1875 133.5425 377.4464 133.5425 C 373.6821 133.5425 370.8997 132.2097 369.0994 129.5676 C 367.2989 126.9255 366.387 122.8806 366.387 117.4328 Z M 305.9231 86.9669 L 335.1028 86.9669 C 334.8222 83.2026 333.3258 80.0695 330.5902 77.5678 C 327.8548 75.0427 324.5814 73.7799 320.7936 73.7799 C 317.0525 73.7799 313.8259 74.9724 311.137 77.3574 C 308.4249 79.7422 306.6947 82.9455 305.9231 86.9669 Z M 306.2037 101.4168 C 306.6947 105.555 308.4014 108.8051 311.3241 111.1199 C 314.2468 113.4346 318.1047 114.6038 322.898 114.6038 C 327.0597 114.6038 331.6891 113.4113 336.7631 111.0263 C 341.8602 108.6416 344.9933 107.4491 346.1855 107.4491 C 348.8043 107.4491 350.9088 108.2439 352.5687 109.8338 C 354.2054 111.4473 355.0237 113.4814 355.0237 116.0067 C 355.0237 120.7296 351.7036 125.0085 345.0868 128.8196 C 338.4697 132.6307 330.7072 134.5244 321.7523 134.5244 C 310.8332 134.5244 301.7378 130.8069 294.4428 123.3483 C 287.1244 115.9132 283.4772 106.584 283.4772 95.3375 C 283.4772 84.0677 287.0309 74.6686 294.1389 67.1164 C 301.2234 59.5874 310.0848 55.8231 320.6766 55.8231 C 330.8943 55.8231 339.4752 59.3536 346.3726 66.4383 C 353.2703 73.5228 356.7072 82.1972 356.7072 92.4383 C 356.7072 95.7817 355.9591 98.0967 354.4393 99.4292 C 352.9193 100.762 350.0201 101.4168 345.7181 101.4168 Z Z M 221.7505 94.823 C 221.7505 100.3178 223.1298 104.7602 225.8655 108.1971 C 228.6011 111.6343 232.0851 113.341 236.3403 113.341 C 240.5724 113.341 244.0561 111.6343 246.745 108.2206 C 249.4338 104.8302 250.7899 100.3646 250.7899 94.823 C 250.7899 89.1881 249.4571 84.6522 246.7685 81.1918 C 244.1029 77.7548 240.6192 76.0246 236.3403 76.0246 C 232.0383 76.0246 228.5311 77.7548 225.8187 81.2385 C 223.1065 84.7225 221.7505 89.2349 221.7505 94.823 Z M 251.0473 126.4345 C 248.779 128.8896 246.1137 130.7601 243.0742 132.0462 C 240.0347 133.3322 236.7145 133.9635 233.1137 133.9635 C 223.8546 133.9635 215.8582 130.1289 209.1244 122.4831 C 202.3908 114.8374 199.0239 105.5085 199.0239 94.5426 C 199.0239 83.5768 202.3441 74.3411 208.9841 66.8122 C 215.6243 59.3068 223.6678 55.5425 233.1137 55.5425 C 236.5507 55.5425 239.6605 56.0569 242.4897 57.0856 C 245.3186 58.1146 248.0075 59.7045 250.5093 61.8557 L 250.5093 41.6541 C 250.5093 36.1829 251.4212 32.1379 253.2217 29.4958 C 255.022 26.8537 257.8276 25.5208 261.6155 25.5208 C 265.2863 25.5208 268.0219 26.8537 269.8224 29.5193 C 271.6227 32.1847 272.5346 36.2296 272.5346 41.6541 L 272.5346 117.4563 C 272.5346 122.9274 271.6462 126.9958 269.8692 129.6144 C 268.0687 132.2332 265.333 133.5425 261.6155 133.5425 C 259.4178 133.5425 257.4302 132.9345 255.6532 131.7423 C 253.8762 130.5262 252.333 128.7493 251.0473 126.4345 Z M 120.7665 117.4563 L 120.7665 72.9851 C 120.7665 67.5605 121.6784 63.5156 123.4789 60.897 C 125.2792 58.2549 128.0616 56.9453 131.8259 56.9453 C 134.0471 56.9453 136.058 57.5301 137.7882 58.6991 C 139.5184 59.8681 141.0615 61.6218 142.3944 64.0065 C 144.7559 61.388 147.4915 59.4942 150.601 58.3016 C 153.7109 57.1091 157.4752 56.5246 161.8943 56.5246 C 170.6155 56.5246 177.2793 59.0265 181.8852 64.0065 C 186.4914 68.9869 188.8061 76.2349 188.8061 85.7276 L 188.8061 117.4563 C 188.8061 122.8806 187.8942 126.9255 186.0704 129.5676 C 184.2467 132.2097 181.4645 133.5425 177.7235 133.5425 C 173.9824 133.5425 171.1999 132.2097 169.3762 129.5676 C 167.5527 126.9255 166.6408 122.8806 166.6408 117.4563 L 166.6408 92.4383 C 166.6408 86.2889 165.7054 81.8933 163.8584 79.2512 C 162.0111 76.6323 158.9716 75.3231 154.7163 75.3231 C 150.6946 75.3231 147.7253 76.6794 145.8081 79.3916 C 143.8907 82.1037 142.9321 86.3592 142.9321 92.1576 L 142.9321 117.4563 C 142.9321 122.8806 142.0202 126.9255 140.1965 129.5676 C 138.3494 132.2097 135.567 133.5425 131.8259 133.5425 C 128.0616 133.5425 125.2792 132.2097 123.4789 129.5676 C 121.6784 126.9255 120.7665 122.8806 120.7665 117.4563 Z M 57.0992 92.8592 L 80.9248 92.8592 L 69.4212 55.8698 Z M 356.377 236.928 C 356.377 242.3761 355.4415 246.4211 353.5713 249.0631 C 351.7007 251.705 348.848 253.0378 345.0137 253.0378 C 341.179 253.0378 338.3266 251.705 336.4561 249.0631 C 334.5855 246.4211 333.6504 242.3761 333.6504 236.928 L 333.6504 166.9246 C 333.6504 161.5001 334.5855 157.4551 336.4561 154.7662 C 338.3266 152.1009 341.179 150.768 345.0137 150.768 C 348.848 150.768 351.7007 152.1009 353.5713 154.7662 C 355.4415 157.4551 356.377 161.5001 356.377 166.9246 Z Z M 854.9827 242.5161 C 852.5512 246.0001 849.6752 248.5954 846.3551 250.3257 C 843.0117 252.0324 839.2006 252.8975 834.9218 252.8975 C 825.9668 252.8975 818.3911 249.2267 812.2185 241.8616 C 806.0224 234.5197 802.9361 225.3779 802.9361 214.4588 C 802.9361 203.4462 806.2795 194.1638 812.9433 186.6349 C 819.6069 179.083 827.7203 175.3183 837.3065 175.3183 C 841.0477 175.3183 844.3678 175.9496 847.267 177.2357 C 850.1662 178.5217 852.7383 180.509 854.9827 183.2212 C 856.1752 181.0235 857.6483 179.2933 859.4018 178.054 C 861.1556 176.7915 862.9558 176.1602 864.7796 176.1602 C 868.5674 176.1602 871.3731 177.4695 873.1734 180.0881 C 874.9739 182.7303 875.8858 186.7519 875.8858 192.1765 L 875.8858 236.6242 C 875.8858 244.7843 875.4884 251.1908 874.6933 255.7735 C 873.8982 260.3561 872.5421 264.1672 870.6719 267.1835 C 867.4449 272.6081 862.9793 276.7465 857.2742 279.5522 C 851.5926 282.3579 844.8355 283.7607 837.0259 283.7607 C 827.4864 283.7607 819.7004 282.2411 813.6681 279.178 C 807.6358 276.1153 804.6196 272.2571 804.6196 267.6045 C 804.6196 264.822 805.5315 262.5073 807.3317 260.6835 C 809.1322 258.8598 811.4002 257.9478 814.1359 257.9478 C 815.4684 257.9478 818.6485 258.9301 823.6986 260.8938 C 828.7489 262.8579 833.4722 263.8401 837.8443 263.8401 C 843.3391 263.8401 847.5709 262.2267 850.5871 258.9768 C 853.6034 255.7267 855.123 251.144 855.123 245.205 C 855.123 244.9247 855.0998 244.4802 855.053 243.8957 C 855.0062 243.3112 854.9827 242.8435 854.9827 242.5161 Z M 825.803 214.4353 C 825.803 219.9534 827.159 224.4193 829.8479 227.8327 C 832.5368 231.2699 835.9972 232.9766 840.2525 232.9766 C 844.5081 232.9766 847.9918 231.2464 850.7275 227.8095 C 853.4631 224.3725 854.8427 219.9066 854.8427 214.4353 C 854.8427 209.0811 853.4631 204.7555 850.7275 201.3886 C 847.9918 198.0452 844.5081 196.3617 840.2525 196.3617 C 835.9972 196.3617 832.5368 198.0452 829.8479 201.3886 C 827.159 204.7555 825.803 209.0811 825.803 214.4353 Z M 724.679 236.6709 L 724.679 192.1997 C 724.679 186.7751 725.5909 182.7303 727.3911 180.1116 C 729.1916 177.4695 731.9738 176.1602 735.7384 176.1602 C 737.9596 176.1602 739.9704 176.7447 741.7006 177.9137 C 743.4306 179.083 744.974 180.8364 746.3065 183.2212 C 748.668 180.6026 751.4037 178.7088 754.5135 177.5163 C 757.623 176.3238 761.3874 175.7393 765.8065 175.7393 C 774.5279 175.7393 781.1915 178.2411 785.7977 183.2212 C 790.4036 188.2015 792.7186 195.4498 792.7186 204.9426 L 792.7186 236.6709 C 792.7186 242.0955 791.8067 246.1404 789.9829 248.7825 C 788.1592 251.4246 785.3767 252.7572 781.6356 252.7572 C 777.8949 252.7572 775.1124 251.4246 773.2886 248.7825 C 771.4649 246.1404 770.553 242.0955 770.553 236.6709 L 770.553 211.6529 C 770.553 205.5038 769.6179 201.1079 767.7706 198.4658 C 765.9236 195.8473 762.884 194.538 758.6285 194.538 C 754.6071 194.538 751.6376 195.894 749.7202 198.6062 C 747.8029 201.3185 746.8443 205.5739 746.8443 211.3723 L 746.8443 236.6709 C 746.8443 242.0955 745.9324 246.1404 744.1089 248.7825 C 742.2616 251.4246 739.4792 252.7572 735.7384 252.7572 C 731.9738 252.7572 729.1916 251.4246 727.3911 248.7825 C 725.5909 246.1404 724.679 242.0955 724.679 236.6709 Z M 685.1411 157.5254 C 685.1411 154.0182 686.4036 151.0019 688.9057 148.5001 C 691.4075 145.9983 694.4235 144.7358 697.9307 144.7358 C 701.4144 144.7358 704.384 145.9983 706.8389 148.5001 C 709.294 151.0019 710.5333 154.0182 710.5333 157.5254 C 710.5333 161.1026 709.3175 164.0954 706.8625 166.574 C 704.4307 169.029 701.4615 170.268 697.9307 170.268 C 694.33 170.268 691.2905 169.029 688.8354 166.574 C 686.3804 164.0954 685.1411 161.1026 685.1411 157.5254 Z M 708.8498 236.6477 C 708.8498 242.1422 707.9612 246.1872 706.1845 248.8293 C 704.384 251.4479 701.6483 252.7572 697.9307 252.7572 C 694.1897 252.7572 691.4075 251.4246 689.5602 248.7825 C 687.7365 246.1404 686.8245 242.0955 686.8245 236.6477 L 686.8245 192.1765 C 686.8245 186.7519 687.7365 182.7303 689.537 180.0881 C 691.3372 177.4695 694.1429 176.1602 697.9307 176.1602 C 701.6483 176.1602 704.384 177.4695 706.1845 180.0881 C 707.9612 182.7303 708.8498 186.7519 708.8498 192.1765 Z Z M 632.8371 236.6477 L 632.8371 192.1765 C 632.8371 186.7519 633.749 182.7303 635.5495 180.0881 C 637.3498 177.4695 640.1322 176.1602 643.8965 176.1602 C 646.1177 176.1602 648.1285 176.7447 649.8588 177.9137 C 651.589 179.083 653.1321 180.8364 654.465 183.2212 C 656.7329 180.7429 659.1647 178.8723 661.713 177.6331 C 664.2616 176.3706 666.8569 175.7393 669.4523 175.7393 C 672.5153 175.7393 675.1339 176.8147 677.3551 178.9894 C 679.5765 181.1638 680.6752 183.7357 680.6752 186.7052 C 680.6752 191.1475 676.607 194.8418 668.4936 197.8113 C 665.5712 198.8632 663.3732 199.7287 661.9236 200.4067 C 659.1412 201.7392 657.2942 203.2124 656.3823 204.8255 C 655.4704 206.4389 655.0027 209.3849 655.0027 213.617 L 655.0027 236.6477 C 655.0027 242.0955 654.0908 246.1404 652.2671 248.7825 C 650.42 251.4246 647.6376 252.7572 643.8965 252.7572 C 640.1322 252.7572 637.3498 251.4246 635.5495 248.7825 C 633.749 246.1404 632.8371 242.0955 632.8371 236.6477 Z M 572.3732 206.1819 L 601.553 206.1819 C 601.2723 202.4172 599.776 199.2842 597.0406 196.7824 C 594.3049 194.2573 591.0316 192.9948 587.2437 192.9948 C 583.5026 192.9948 580.276 194.1871 577.5872 196.572 C 574.875 198.9568 573.1448 202.1602 572.3732 206.1819 Z M 572.6538 220.6314 C 573.1448 224.7699 574.8518 228.0198 577.7742 230.3345 C 580.6969 232.6492 584.5548 233.8185 589.3481 233.8185 C 593.5099 233.8185 598.1393 232.626 603.2132 230.241 C 608.3103 227.8562 611.4434 226.6637 612.6359 226.6637 C 615.2545 226.6637 617.3589 227.4588 619.0188 229.0487 C 620.6555 230.6619 621.4739 232.696 621.4739 235.2213 C 621.4739 239.9443 618.1537 244.2231 611.5369 248.0342 C 604.9199 251.8453 597.1574 253.7394 588.2024 253.7394 C 577.2833 253.7394 568.188 250.0218 560.8932 242.5631 C 553.5746 235.1278 549.9273 225.7986 549.9273 214.5524 C 549.9273 203.2824 553.4813 193.8832 560.589 186.331 C 567.6735 178.8023 576.5349 175.038 587.1267 175.038 C 597.3445 175.038 605.9253 178.5685 612.8227 185.6529 C 619.7204 192.7374 623.1573 201.4121 623.1573 211.6529 C 623.1573 214.9965 622.4092 217.3113 620.8894 218.6441 C 619.3698 219.9767 616.4703 220.6314 612.1682 220.6314 Z Z M 516.4217 160.8923 C 516.4217 155.421 517.3336 151.3525 519.1573 148.7104 C 521.0047 146.0683 523.7871 144.7358 527.5278 144.7358 C 531.1989 144.7358 533.9343 146.0683 535.7348 148.7339 C 537.5351 151.4228 538.447 155.4678 538.447 160.8923 L 538.447 236.6477 C 538.447 242.1422 537.5586 246.1872 535.7816 248.8293 C 533.9811 251.4479 531.2457 252.7572 527.5278 252.7572 C 523.7871 252.7572 521.0047 251.4246 519.1573 248.7825 C 517.3336 246.1404 516.4217 242.0955 516.4217 236.6477 Z Z M 452.8715 214.1547 C 452.8715 219.8131 454.2276 224.349 456.9165 227.8095 C 459.6053 231.2464 463.1126 232.9766 467.4613 232.9766 C 471.8105 232.9766 475.3174 231.2464 478.0063 227.7627 C 480.6952 224.3022 482.0513 219.7663 482.0513 214.1547 C 482.0513 208.7069 480.6719 204.2878 477.9127 200.8273 C 475.1539 197.3904 471.6702 195.6602 467.4613 195.6602 C 463.1593 195.6602 459.6753 197.3669 456.94 200.8041 C 454.2276 204.2178 452.8715 208.6601 452.8715 214.1547 Z M 430.0046 214.4118 C 430.0046 202.9082 433.5351 193.4622 440.5728 186.0271 C 447.634 178.6153 456.589 174.8977 467.4613 174.8977 C 478.3804 174.8977 487.3123 178.5917 494.3031 186.0036 C 501.2941 193.3922 504.7778 202.8617 504.7778 214.4118 C 504.7778 225.9857 501.2941 235.4552 494.3031 242.8903 C 487.3123 250.3022 478.3804 254.02 467.4613 254.02 C 456.589 254.02 447.634 250.3022 440.5728 242.8435 C 433.5351 235.4084 430.0046 225.9389 430.0046 214.4118 Z M 394.5352 253.8797 C 386.6557 253.8797 380.1089 252.313 374.9182 249.1567 C 369.7511 246.0001 367.1557 242.0955 367.1557 237.4425 C 367.1557 234.6601 367.9741 232.3221 369.6108 230.4048 C 371.2707 228.4875 373.2583 227.5288 375.573 227.5288 C 377.911 227.5288 381.3247 228.6043 385.8605 230.7322 C 390.3732 232.8831 393.7869 233.9588 396.0548 233.9588 C 397.9021 233.9588 399.375 233.5146 400.5208 232.6492 C 401.6665 231.7844 402.2277 230.7087 402.2277 229.4461 C 402.2277 227.2482 398.6737 224.7464 391.5657 221.9175 L 390.1161 221.3562 C 382.0495 217.9893 376.5317 214.6456 373.5622 211.3255 C 370.5927 208.0053 369.1198 203.8204 369.1198 198.7465 C 369.1198 191.9426 371.7384 186.261 376.9759 181.7248 C 382.1898 177.1656 388.8068 174.8977 396.8032 174.8977 C 404.0279 174.8977 410.1538 176.4409 415.1809 179.5036 C 420.2078 182.5667 422.7096 186.1675 422.7096 190.3291 C 422.7096 192.948 421.8212 195.1457 420.0674 196.9227 C 418.314 198.6997 416.1396 199.5883 413.591 199.5883 C 411.884 199.5883 409.0081 198.6997 404.9631 196.9227 C 400.9182 195.1457 397.8318 194.2573 395.7275 194.2573 C 394.2311 194.2573 393.0154 194.608 392.1034 195.3095 C 391.1916 196.0343 390.7242 196.9462 390.7242 198.0917 C 390.7242 200.1493 393.6701 202.2769 399.5388 204.5217 C 402.2745 205.5739 404.4489 206.4622 406.0621 207.187 C 412.6791 210.1565 417.3786 213.2896 420.1845 216.6097 C 422.9902 219.9066 424.393 223.9281 424.393 228.6278 C 424.393 235.8293 421.5638 241.8381 415.929 246.6549 C 410.2941 251.4714 403.1629 253.8797 394.5352 253.8797"/>
</svg>
